<svg width="19" height="18" viewBox="0 0 19 18" fill="none" xmlns="http://www.w3.org/2000/svg">
<g id="User Interface / Share">
<path id="Vector" d="M14.001 10.5008C13.5578 10.5037 13.1209 10.6048 12.7215 10.7967C12.3221 10.9887 11.9701 11.2667 11.691 11.6108L7.86597 9.84832C8.04581 9.29763 8.04581 8.70401 7.86597 8.15332L11.691 6.39082C12.1422 6.93529 12.7712 7.30288 13.4671 7.4287C14.1629 7.55452 14.8809 7.43049 15.4942 7.0785C16.1075 6.7265 16.5767 6.16918 16.8191 5.50488C17.0615 4.84057 17.0614 4.112 16.8189 3.44775C16.5764 2.78349 16.1071 2.22625 15.4937 1.87437C14.8803 1.52249 14.1624 1.39859 13.4665 1.52454C12.7707 1.65048 12.1417 2.01818 11.6906 2.56274C11.2395 3.1073 10.9953 3.7937 11.001 4.50082C11.0032 4.67949 11.0208 4.85764 11.0535 5.03332L7.09347 6.85582C6.67128 6.443 6.13665 6.16396 5.55657 6.05364C4.97649 5.94332 4.37676 6.00664 3.8325 6.23567C3.28825 6.46469 2.82369 6.84923 2.49702 7.34111C2.17035 7.833 1.99609 8.41034 1.99609 9.00082C1.99609 9.59129 2.17035 10.1686 2.49702 10.6605C2.82369 11.1524 3.28825 11.5369 3.8325 11.766C4.37676 11.995 4.97649 12.0583 5.55657 11.948C6.13665 11.8377 6.67128 11.5586 7.09347 11.1458L11.0535 12.9683C11.0208 13.144 11.0032 13.3221 11.001 13.5008C11.001 14.0942 11.1769 14.6742 11.5066 15.1675C11.8362 15.6609 12.3047 16.0454 12.8529 16.2725C13.4011 16.4995 14.0043 16.5589 14.5862 16.4432C15.1682 16.3274 15.7027 16.0417 16.1223 15.6221C16.5418 15.2026 16.8276 14.668 16.9433 14.0861C17.0591 13.5041 16.9997 12.9009 16.7726 12.3528C16.5455 11.8046 16.161 11.3361 15.6677 11.0064C15.1743 10.6768 14.5943 10.5008 14.001 10.5008ZM14.001 3.00082C14.2976 3.00082 14.5876 3.08879 14.8343 3.25361C15.081 3.41844 15.2733 3.6527 15.3868 3.92679C15.5003 4.20088 15.53 4.50248 15.4721 4.79345C15.4143 5.08443 15.2714 5.3517 15.0616 5.56148C14.8518 5.77126 14.5846 5.91412 14.2936 5.972C14.0026 6.02987 13.701 6.00017 13.4269 5.88664C13.1529 5.77311 12.9186 5.58085 12.7538 5.33417C12.5889 5.0875 12.501 4.79749 12.501 4.50082C12.501 4.10299 12.659 3.72146 12.9403 3.44016C13.2216 3.15885 13.6031 3.00082 14.001 3.00082ZM5.00097 10.5008C4.7043 10.5008 4.41429 10.4128 4.16761 10.248C3.92094 10.0832 3.72868 9.84893 3.61515 9.57484C3.50162 9.30075 3.47191 8.99915 3.52979 8.70818C3.58767 8.41721 3.73053 8.14994 3.94031 7.94016C4.15009 7.73038 4.41736 7.58752 4.70833 7.52964C4.9993 7.47176 5.3009 7.50147 5.57499 7.615C5.84908 7.72853 6.08335 7.92079 6.24817 8.16746C6.41299 8.41414 6.50097 8.70415 6.50097 9.00082C6.50097 9.39864 6.34293 9.78017 6.06163 10.0615C5.78032 10.3428 5.39879 10.5008 5.00097 10.5008ZM14.001 15.0008C13.7043 15.0008 13.4143 14.9128 13.1676 14.748C12.9209 14.5832 12.7287 14.3489 12.6151 14.0748C12.5016 13.8008 12.4719 13.4992 12.5298 13.2082C12.5877 12.9172 12.7305 12.6499 12.9403 12.4402C13.1501 12.2304 13.4174 12.0875 13.7083 12.0296C13.9993 11.9718 14.3009 12.0015 14.575 12.115C14.8491 12.2285 15.0833 12.4208 15.2482 12.6675C15.413 12.9141 15.501 13.2041 15.501 13.5008C15.501 13.8986 15.3429 14.2802 15.0616 14.5615C14.7803 14.8428 14.3988 15.0008 14.001 15.0008Z" fill="#2C6DFA"/>
</g>
</svg>
