<svg width="16" height="16" viewBox="0 0 16 16" fill="none" xmlns="http://www.w3.org/2000/svg">
<path d="M10.7824 5.21786C10.7127 5.14757 10.6297 5.09177 10.5383 5.0537C10.4469 5.01562 10.3489 4.99602 10.2499 4.99602C10.1509 4.99602 10.0528 5.01562 9.96144 5.0537C9.87005 5.09177 9.7871 5.14757 9.71738 5.21786L7.99988 6.94286L6.28238 5.21786C6.14115 5.07664 5.9496 4.9973 5.74988 4.9973C5.55015 4.9973 5.3586 5.07664 5.21738 5.21786C5.07615 5.35909 4.99681 5.55064 4.99681 5.75036C4.99681 5.95009 5.07615 6.14164 5.21738 6.28286L6.94238 8.00036L5.21738 9.71786C5.14708 9.78759 5.09128 9.87054 5.05321 9.96193C5.01513 10.0533 4.99553 10.1514 4.99553 10.2504C4.99553 10.3494 5.01513 10.4474 5.05321 10.5388C5.09128 10.6302 5.14708 10.7131 5.21738 10.7829C5.2871 10.8532 5.37005 10.909 5.46144 10.947C5.55284 10.9851 5.65087 11.0047 5.74988 11.0047C5.84889 11.0047 5.94691 10.9851 6.03831 10.947C6.1297 10.909 6.21265 10.8532 6.28238 10.7829L7.99988 9.05786L9.71738 10.7829C9.7871 10.8532 9.87005 10.909 9.96144 10.947C10.0528 10.9851 10.1509 11.0047 10.2499 11.0047C10.3489 11.0047 10.4469 10.9851 10.5383 10.947C10.6297 10.909 10.7127 10.8532 10.7824 10.7829C10.8527 10.7131 10.9085 10.6302 10.9465 10.5388C10.9846 10.4474 11.0042 10.3494 11.0042 10.2504C11.0042 10.1514 10.9846 10.0533 10.9465 9.96193C10.9085 9.87054 10.8527 9.78759 10.7824 9.71786L9.05738 8.00036L10.7824 6.28286C10.8527 6.21314 10.9085 6.13019 10.9465 6.0388C10.9846 5.9474 11.0042 5.84937 11.0042 5.75036C11.0042 5.65136 10.9846 5.55333 10.9465 5.46193C10.9085 5.37054 10.8527 5.28759 10.7824 5.21786ZM13.3024 2.69786C12.6105 1.98154 11.7829 1.41017 10.8679 1.0171C9.95288 0.624037 8.96873 0.41714 7.97289 0.408486C6.97704 0.399833 5.98944 0.589595 5.06772 0.966702C4.146 1.34381 3.30861 1.90071 2.60441 2.6049C1.90022 3.3091 1.34332 4.14649 0.966214 5.06821C0.589107 5.98993 0.399344 6.97753 0.407998 7.97337C0.416652 8.96922 0.623548 9.95337 1.01662 10.8684C1.40968 11.7834 1.98105 12.611 2.69738 13.3029C3.38923 14.0192 4.21681 14.5906 5.13184 14.9836C6.04687 15.3767 7.03102 15.5836 8.02687 15.5922C9.02271 15.6009 10.0103 15.4111 10.932 15.034C11.8538 14.6569 12.6911 14.1 13.3953 13.3958C14.0995 12.6916 14.6564 11.8542 15.0335 10.9325C15.4106 10.0108 15.6004 9.0232 15.5918 8.02736C15.5831 7.03151 15.3762 6.04736 14.9831 5.13233C14.5901 4.2173 14.0187 3.38972 13.3024 2.69786ZM12.2449 12.2454C11.2639 13.2274 9.97278 13.839 8.59147 13.9758C7.21016 14.1127 5.82413 13.7664 4.66952 12.9959C3.5149 12.2255 2.66315 11.0785 2.25936 9.75048C1.85557 8.42243 1.92473 6.99547 2.45506 5.7127C2.98539 4.42993 3.94408 3.37073 5.16779 2.71554C6.39151 2.06035 7.80453 1.84971 9.16613 2.11952C10.5277 2.38933 11.7537 3.12288 12.6351 4.19521C13.5165 5.26754 13.9988 6.61229 13.9999 8.00036C14.0026 8.78883 13.8488 9.57 13.5476 10.2987C13.2463 11.0273 12.8036 11.689 12.2449 12.2454Z" fill="#F35D6C"/>
</svg>
