<svg xmlns="http://www.w3.org/2000/svg" fill="none" viewBox="0 0 200 200" id="Kawaii-Manga-Yugioh-Games-Millennium-Puzzle--Streamline-Ultimate.svg" height="200" width="200"><desc>Kawaii Manga Yugioh Games Millennium Puzzle Streamline Icon: https://streamlinehq.com</desc><path fill="#000000" d="M194.78583333333336 56.47c-0.6841666666666668 -1.2855 -1.7075 -2.359 -2.959166666666667 -3.1040833333333335 -1.2508333333333335 -0.7450833333333334 -2.6825000000000006 -1.1334166666666667 -4.138333333333334 -1.12275h-68.26666666666668c3.9975000000000005 -3.881083333333333 6.745833333333334 -8.866833333333334 7.893333333333334 -14.319 1.1475 -5.452166666666667 0.6416666666666667 -11.12275 -1.4525000000000001 -16.28591666666667 -2.094166666666667 -5.163083333333334 -5.680833333333333 -9.583833333333335 -10.3025 -12.696416666666668C110.93916666666667 5.829341666666667 105.49416666666667 4.166666666666667 99.92250000000001 4.166666666666667c-5.571666666666667 0 -11.016666666666667 1.6626750000000001 -15.637500000000001 4.775166666666667 -4.621333333333334 3.1125833333333337 -8.2085 7.533333333333334 -10.302583333333335 12.696416666666668 -2.0940833333333337 5.163166666666667 -2.5997500000000002 10.83375 -1.4523333333333333 16.28591666666667 1.1475 5.452166666666667 3.895916666666667 10.437916666666668 7.893416666666667 14.319H12.236583333333336c-1.4548333333333336 0.002416666666666667 -2.881416666666667 0.40275 -4.125083333333333 1.1576666666666666 -1.2437083333333334 0.755 -2.257191666666667 1.8357500000000002 -2.9307416666666666 3.1253333333333333 -0.67355 1.2895833333333333 -0.9814916666666667 2.738916666666667 -0.8904833333333334 4.190916666666666 0.09100833333333334 1.4520833333333334 0.5774916666666667 2.8515833333333336 1.4067833333333333 4.047000000000001L93.4225 192.365c0.7325000000000002 1.0691666666666668 1.7150000000000003 1.9441666666666668 2.8608333333333333 2.548333333333334 1.1466666666666667 0.6041666666666666 2.4233333333333333 0.92 3.7191666666666667 0.92 1.2958333333333334 0 2.5725 -0.31583333333333335 3.7183333333333333 -0.92 1.1466666666666667 -0.6041666666666666 2.1283333333333334 -1.4791666666666667 2.8608333333333333 -2.548333333333334L194.3075 64.76408333333335c0.8341666666666667 -1.2050833333333333 1.3200000000000003 -2.6166666666666667 1.405 -4.079833333333334 0.08416666666666667 -1.463166666666667 -0.2366666666666667 -2.9213333333333336 -0.9266666666666666 -4.21425ZM99.9625 20.342916666666667c2.3658333333333332 0 4.679166666666667 0.7015833333333333 6.645833333333334 2.016 1.9675000000000002 1.3145 3.5008333333333335 3.1828333333333334 4.405833333333333 5.368666666666667 0.9058333333333335 2.1859166666666665 1.1425 4.591166666666667 0.6808333333333333 6.911666666666667 -0.46166666666666667 2.3205833333333334 -1.6008333333333333 4.452083333333333 -3.2733333333333334 6.125083333333334 -1.6733333333333336 1.673 -3.805 2.8123333333333336 -6.1258333333333335 3.273916666666667 -2.32 0.4615833333333334 -4.725 0.22466666666666668 -6.911666666666667 -0.6807500000000001 -2.1858333333333335 -0.9054166666666666 -4.054166666666667 -2.4386666666666668 -5.368333333333334 -4.405916666666667s-2.0158333333333336 -4.280083333333334 -2.0158333333333336 -6.646083333333333c0 -3.1726666666666667 1.26 -6.215416666666667 3.5033333333333334 -8.458833333333335 2.2433333333333336 -2.243416666666667 5.286666666666667 -3.50375 8.459166666666667 -3.50375Zm0 61.806833333333344c-3.1350000000000002 -0.002666666666666667 -6.214166666666667 0.8310000000000001 -8.92 2.41525 -2.7058333333333335 1.5841666666666667 -4.94 3.8608333333333333 -6.471666666666667 6.596666666666667 -0.5633333333333334 0.9266666666666666 -1.3615000000000002 1.6883333333333335 -2.314 2.2066666666666666 -0.9525833333333333 0.5183333333333333 -2.0253333333333337 0.775 -3.1093333333333337 0.7441666666666668h-7.177583333333334c-1.5863333333333334 0 -3.107666666666667 -0.63 -4.229416666666667 -1.7516666666666667 -1.1217500000000002 -1.1225 -1.7519166666666668 -2.6433333333333335 -1.7519166666666668 -4.23 0 -1.5858333333333334 0.6301666666666668 -3.1075000000000004 1.7519166666666668 -4.229166666666667 1.1217500000000002 -1.1217500000000002 2.6430833333333337 -1.7519166666666668 4.229416666666667 -1.7519166666666668h4.067333333333334c2.755416666666667 -3.7580833333333334 6.3574166666666665 -6.814166666666667 10.514416666666667 -8.92075 4.156666666666667 -2.1065833333333335 8.750833333333334 -3.2043333333333335 13.410833333333334 -3.2043333333333335 4.66 0 9.254166666666668 1.0977500000000002 13.410833333333334 3.2043333333333335 4.156666666666667 2.1065833333333335 7.759166666666667 5.1626666666666665 10.514166666666668 8.92075h4.0675c1.586666666666667 0 3.1075000000000004 0.6301666666666668 4.229166666666667 1.7519166666666668 1.1216666666666668 1.1216666666666668 1.7516666666666667 2.6433333333333335 1.7516666666666667 4.229166666666667 0 1.586666666666667 -0.63 3.1075000000000004 -1.7516666666666667 4.23 -1.1216666666666668 1.1216666666666668 -2.6425 1.7516666666666667 -4.229166666666667 1.7516666666666667h-7.2575c-1.0466666666666666 0.0041666666666666675 -2.075833333333333 -0.2658333333333333 -2.985833333333334 -0.7833333333333334 -0.9100000000000001 -0.5175000000000001 -1.6675000000000002 -1.265 -2.1975000000000002 -2.1675 -1.5458333333333334 -2.7591666666666668 -3.805 -5.051666666666667 -6.540833333333334 -6.6375 -2.7366666666666672 -1.5855000000000001 -5.848333333333334 -2.405666666666667 -9.010833333333334 -2.374416666666667Zm9.969166666666666 23.925250000000002c0 1.971666666666667 -0.5850000000000001 3.899166666666667 -1.6808333333333334 5.538333333333333 -1.095 1.6391666666666669 -2.651666666666667 2.9175000000000004 -4.4733333333333345 3.671666666666667 -1.8216666666666668 0.7541666666666667 -3.8258333333333336 0.9516666666666667 -5.760000000000001 0.5675 -1.9333333333333336 -0.385 -3.71 -1.3341666666666667 -5.104166666666667 -2.728333333333334 -1.3941666666666668 -1.3941666666666668 -2.3433333333333337 -3.1708333333333334 -2.728333333333334 -5.104166666666667 -0.3841666666666667 -1.9341666666666668 -0.1875 -3.938333333333334 0.5675 -5.760000000000001 0.7541666666666667 -1.8216666666666668 2.0325 -3.3783333333333334 3.671666666666667 -4.474166666666667 1.6391666666666669 -1.095 3.566666666666667 -1.6800000000000002 5.538333333333333 -1.6800000000000002 2.6300000000000003 0.021666666666666667 5.145 1.0808333333333335 6.9975000000000005 2.9483333333333337 1.8525 1.866666666666667 2.8916666666666666 4.390833333333334 2.8916666666666666 7.020833333333334h0.08Zm-43.94308333333334 17.94416666666667c0.020666666666666667 -1.58 0.6575000000000001 -3.0900000000000003 1.77475 -4.206666666666667 1.11725 -1.1175000000000002 2.6266666666666665 -1.7541666666666667 4.206583333333334 -1.7750000000000001h7.975083333333334c0.9398333333333334 0.09083333333333334 1.8460833333333335 0.3966666666666667 2.648333333333334 0.895 0.8025 0.49750000000000005 1.4791666666666667 1.1741666666666668 1.9775000000000003 1.9758333333333336 1.54 2.7383333333333337 3.7808333333333337 5.0183333333333335 6.492500000000001 6.604166666666667 2.711666666666667 1.586666666666667 5.7975 2.4225000000000003 8.939166666666667 2.4225000000000003s6.226666666666667 -0.8358333333333334 8.938333333333334 -2.4225000000000003c2.7125000000000004 -1.5858333333333334 4.953333333333334 -3.8658333333333332 6.493333333333334 -6.604166666666667 0.53 -0.9025 1.2883333333333333 -1.6500000000000001 2.1975000000000002 -2.1675 0.9100000000000001 -0.5175000000000001 1.9391666666666667 -0.7875000000000001 2.985833333333334 -0.7833333333333334h7.2575c1.586666666666667 0 3.1075000000000004 0.6308333333333334 4.23 1.7525 1.1216666666666668 1.1216666666666668 1.7516666666666667 2.6425 1.7516666666666667 4.229166666666667 0 1.586666666666667 -0.63 3.1075000000000004 -1.7516666666666667 4.229166666666667 -1.1225 1.1216666666666668 -2.6433333333333335 1.7516666666666667 -4.23 1.7516666666666667h-3.9875000000000003c-2.7550000000000003 3.7583333333333337 -6.357500000000001 6.814166666666667 -10.514166666666668 8.920833333333334s-8.750833333333334 3.205 -13.410833333333334 3.205c-4.66 0 -9.254166666666668 -1.0983333333333334 -13.410833333333334 -3.205 -4.157 -2.106666666666667 -7.759 -5.1625000000000005 -10.514416666666667 -8.920833333333334h-4.067333333333334c-1.5664166666666668 -0.02 -3.064166666666667 -0.6458333333333334 -4.179250000000001 -1.7458333333333333 -1.1151666666666666 -1.1 -1.7609166666666667 -2.589166666666667 -1.8020833333333335 -4.155Z" stroke-width="1"></path></svg>