<svg width="17" height="16" viewBox="0 0 17 16" fill="none" xmlns="http://www.w3.org/2000/svg">
<g clip-path="url(#clip0_4892_4127)">
<path d="M8.49968 7.33325C8.32287 7.33325 8.1533 7.40349 8.02827 7.52851C7.90325 7.65354 7.83301 7.82311 7.83301 7.99992V10.6666C7.83301 10.8434 7.90325 11.013 8.02827 11.138C8.1533 11.263 8.32287 11.3333 8.49968 11.3333C8.67649 11.3333 8.84606 11.263 8.97108 11.138C9.09611 11.013 9.16634 10.8434 9.16634 10.6666V7.99992C9.16634 7.82311 9.09611 7.65354 8.97108 7.52851C8.84606 7.40349 8.67649 7.33325 8.49968 7.33325ZM8.75301 4.71992C8.5907 4.65324 8.40865 4.65324 8.24634 4.71992C8.16451 4.75165 8.08975 4.79922 8.02634 4.85992C7.96746 4.92472 7.92011 4.99913 7.88634 5.07992C7.84902 5.15904 7.83076 5.2458 7.83301 5.33325C7.8325 5.42099 7.84932 5.50796 7.8825 5.58919C7.91567 5.67041 7.96456 5.74429 8.02634 5.80659C8.09115 5.86547 8.16555 5.91282 8.24634 5.94659C8.34734 5.98808 8.45699 6.00413 8.56564 5.99333C8.6743 5.98252 8.77863 5.9452 8.86949 5.88463C8.96034 5.82406 9.03492 5.74211 9.08668 5.64597C9.13845 5.54982 9.1658 5.44244 9.16634 5.33325C9.16389 5.15674 9.09483 4.98767 8.97301 4.85992C8.90961 4.79922 8.83485 4.75165 8.75301 4.71992ZM8.49968 1.33325C7.18114 1.33325 5.8922 1.72425 4.79588 2.45679C3.69955 3.18933 2.84506 4.23052 2.34048 5.4487C1.8359 6.66687 1.70387 8.00731 1.96111 9.30052C2.21834 10.5937 2.85328 11.7816 3.78563 12.714C4.71798 13.6463 5.90587 14.2813 7.19908 14.5385C8.49228 14.7957 9.83273 14.6637 11.0509 14.1591C12.2691 13.6545 13.3103 12.8 14.0428 11.7037C14.7754 10.6074 15.1663 9.31846 15.1663 7.99992C15.1663 7.12444 14.9939 6.25753 14.6589 5.4487C14.3238 4.63986 13.8328 3.90493 13.2137 3.28587C12.5947 2.66682 11.8597 2.17575 11.0509 1.84072C10.2421 1.50569 9.37516 1.33325 8.49968 1.33325ZM8.49968 13.3333C7.44484 13.3333 6.4137 13.0205 5.53664 12.4344C4.65957 11.8484 3.97599 11.0154 3.57232 10.0409C3.16865 9.06636 3.06304 7.994 3.26882 6.95944C3.47461 5.92487 3.98256 4.97456 4.72844 4.22868C5.47432 3.4828 6.42463 2.97485 7.4592 2.76906C8.49376 2.56328 9.56612 2.66889 10.5407 3.07256C11.5152 3.47623 12.3481 4.15982 12.9342 5.03688C13.5202 5.91394 13.833 6.94509 13.833 7.99992C13.833 9.41441 13.2711 10.771 12.2709 11.7712C11.2707 12.7713 9.91417 13.3333 8.49968 13.3333Z" fill="#F77F31"/>
</g>
<defs>
<clipPath id="clip0_4892_4127">
<rect width="16" height="16" fill="white" transform="translate(0.5)"/>
</clipPath>
</defs>
</svg>
