<svg width="19" height="18" viewBox="0 0 19 18" fill="none" xmlns="http://www.w3.org/2000/svg">
<path d="M9.24422 16.5938C8.02359 16.5938 6.80859 16.3013 5.70047 15.7163L3.70359 16.2788C3.34359 16.38 2.97234 16.3406 2.64047 16.1606C2.31422 15.9806 2.07234 15.6825 1.97109 15.3281C1.89797 15.075 1.89797 14.805 1.97109 14.5463L2.53359 12.5494C0.654843 9.00001 1.88109 4.55064 5.37422 2.48064C8.97422 0.348761 13.6373 1.54126 15.7692 5.14126C16.8042 6.88501 17.0967 8.92689 16.5905 10.89C16.0898 12.8531 14.8523 14.5013 13.1086 15.5363C11.9161 16.245 10.5773 16.5994 9.23859 16.5994L9.24422 16.5938ZM5.80734 13.9613C5.95922 13.9613 6.10547 14.0006 6.23484 14.0794C8.09109 15.1819 10.3973 15.1819 12.248 14.0794C13.6036 13.275 14.5655 11.9925 14.9536 10.4681C15.3417 8.94376 15.1167 7.35189 14.3123 5.99626C12.653 3.20064 9.03047 2.27251 6.22922 3.93189C3.43359 5.59126 2.50547 9.21376 4.16484 12.015C4.28297 12.2119 4.31109 12.4538 4.24922 12.6731L3.72609 14.5181L5.57109 13.995C5.64422 13.9725 5.72297 13.9613 5.80172 13.9613H5.80734Z" fill="#2C6DFA"/>
<path d="M10.9262 13.2188C9.36812 13.2188 7.90562 12.6169 6.79187 11.5256C5.66688 10.4231 5.0425 8.94375 5.03125 7.36875C5.03125 7.335 5.03125 7.30125 5.03125 7.2675C5.05375 5.88937 6.18437 4.78125 7.55687 4.78125H7.81C8.305 4.78125 8.76062 5.04563 9.01375 5.4675L9.53125 6.32812C9.78437 6.73875 9.80125 7.25625 9.5875 7.68375L9.41875 8.0325C9.5875 8.38687 9.87437 8.67375 10.2231 8.83687L10.5719 8.66812C10.9994 8.44875 11.5169 8.47125 11.9275 8.72438L12.7881 9.24188C13.21 9.48938 13.4744 9.95062 13.4744 10.4456V10.6931C13.48 12.0656 12.3662 13.2019 10.9937 13.2244H10.9375L10.9262 13.2188ZM6.71875 7.29C6.71875 7.29 6.71875 7.335 6.71875 7.3575C6.73 8.4825 7.17437 9.53438 7.97875 10.3275C8.7775 11.115 9.84062 11.5425 10.9656 11.5369C11.4212 11.5256 11.7869 11.1488 11.7869 10.6988V10.6144L11.1906 10.2544L10.6506 10.5188C10.465 10.6088 10.2569 10.6312 10.0544 10.575C8.9125 10.26 8.00687 9.35438 7.69187 8.2125C7.63562 8.01563 7.65812 7.80187 7.74812 7.61625L8.0125 7.07625L7.6525 6.48H7.56812C7.1125 6.48 6.73563 6.84562 6.73 7.30125L6.71875 7.29Z" fill="#2C6DFA"/>
</svg>
