<svg width="25" height="25" viewBox="0 0 25 25" fill="none" xmlns="http://www.w3.org/2000/svg">
<path d="M6.9563 6.35003L3.7463 3.13003C3.65306 3.03679 3.54237 2.96283 3.42055 2.91237C3.29873 2.86191 3.16816 2.83594 3.0363 2.83594C2.90444 2.83594 2.77387 2.86191 2.65205 2.91237C2.53023 2.96283 2.41954 3.03679 2.3263 3.13003C2.138 3.31833 2.03221 3.57373 2.03221 3.84003C2.03221 4.10633 2.138 4.36173 2.3263 4.55003L4.5963 6.84003C3.44327 7.49551 2.38092 8.29899 1.4363 9.23003C1.25005 9.41739 1.14551 9.67084 1.14551 9.93503C1.14551 10.1992 1.25005 10.4527 1.4363 10.64C1.52892 10.7345 1.63936 10.8097 1.76124 10.8612C1.88311 10.9127 2.01399 10.9395 2.1463 10.94C2.40864 10.9389 2.66004 10.8348 2.8463 10.65C3.79924 9.70499 4.89205 8.91237 6.0863 8.30003L7.5763 9.84003C6.33703 10.3817 5.21077 11.1518 4.2563 12.11C4.15231 12.2004 4.06812 12.3114 4.00902 12.4358C3.94992 12.5603 3.91718 12.6957 3.91286 12.8334C3.90855 12.9711 3.93274 13.1082 3.98392 13.2362C4.0351 13.3641 4.11217 13.4801 4.2103 13.5768C4.30842 13.6736 4.42548 13.749 4.55413 13.7984C4.68278 13.8477 4.82024 13.87 4.95789 13.8637C5.09555 13.8574 5.23041 13.8228 5.35404 13.7619C5.47767 13.701 5.58738 13.6153 5.6763 13.51C6.64587 12.5448 7.82714 11.8189 9.1263 11.39L10.7463 13C9.35997 13.2668 8.08525 13.9424 7.0863 14.94C6.98231 15.0304 6.89812 15.1414 6.83902 15.2658C6.77992 15.3903 6.74718 15.5257 6.74286 15.6634C6.73855 15.8011 6.76274 15.9382 6.81392 16.0662C6.8651 16.1941 6.94217 16.3101 7.0403 16.4068C7.13842 16.5036 7.25548 16.579 7.38413 16.6284C7.51278 16.6777 7.65024 16.7 7.78789 16.6937C7.92554 16.6874 8.06041 16.6528 8.18404 16.5919C8.30767 16.531 8.41738 16.4453 8.5063 16.34C8.96701 15.87 9.51599 15.4955 10.1218 15.2381C10.7275 14.9807 11.3781 14.8454 12.0363 14.84C12.2473 14.8406 12.4579 14.8573 12.6663 14.89L20.3263 22.55C20.4193 22.6438 20.5299 22.7182 20.6517 22.7689C20.7736 22.8197 20.9043 22.8458 21.0363 22.8458C21.1683 22.8458 21.299 22.8197 21.4209 22.7689C21.5427 22.7182 21.6533 22.6438 21.7463 22.55C21.84 22.4571 21.9144 22.3465 21.9652 22.2246C22.016 22.1027 22.0421 21.972 22.0421 21.84C22.0421 21.708 22.016 21.5773 21.9652 21.4555C21.9144 21.3336 21.84 21.223 21.7463 21.13L6.9563 6.35003ZM12.0363 16.84C11.443 16.84 10.8629 17.016 10.3696 17.3456C9.87624 17.6753 9.49172 18.1438 9.26466 18.692C9.0376 19.2402 8.97819 19.8434 9.09394 20.4253C9.2097 21.0072 9.49542 21.5418 9.91498 21.9613C10.3345 22.3809 10.8691 22.6666 11.451 22.7824C12.033 22.8981 12.6362 22.8387 13.1844 22.6117C13.7325 22.3846 14.2011 22.0001 14.5307 21.5067C14.8604 21.0134 15.0363 20.4334 15.0363 19.84C15.0363 19.0444 14.7202 18.2813 14.1576 17.7187C13.595 17.1561 12.832 16.84 12.0363 16.84ZM12.0363 20.84C11.8385 20.84 11.6452 20.7814 11.4807 20.6715C11.3163 20.5616 11.1881 20.4054 11.1124 20.2227C11.0367 20.04 11.0169 19.8389 11.0555 19.6449C11.0941 19.451 11.1893 19.2728 11.3292 19.1329C11.469 18.9931 11.6472 18.8978 11.8412 18.8592C12.0352 18.8207 12.2363 18.8405 12.419 18.9161C12.6017 18.9918 12.7579 19.12 12.8678 19.2845C12.9777 19.4489 13.0363 19.6422 13.0363 19.84C13.0363 20.1052 12.9309 20.3596 12.7434 20.5471C12.5559 20.7347 12.3015 20.84 12.0363 20.84ZM22.6463 9.23003C21.0483 7.63345 19.1104 6.4184 16.9771 5.67557C14.8438 4.93273 12.5703 4.6813 10.3263 4.94003C10.195 4.95447 10.0678 4.99464 9.95199 5.05824C9.83619 5.12185 9.73406 5.20763 9.65141 5.3107C9.4845 5.51887 9.40713 5.78481 9.4363 6.05003C9.46547 6.31525 9.59881 6.55801 9.80698 6.72492C10.0151 6.89183 10.2811 6.9692 10.5463 6.94003C12.4923 6.71794 14.4633 6.93603 16.3136 7.5782C18.1639 8.22036 19.8463 9.27018 21.2363 10.65C21.4246 10.837 21.6795 10.9415 21.9448 10.9406C22.2102 10.9396 22.4643 10.8333 22.6513 10.645C22.8383 10.4567 22.9428 10.2019 22.9419 9.93649C22.9409 9.67113 22.8346 9.41701 22.6463 9.23003ZM18.3963 13.47C18.5864 13.6353 18.8319 13.7227 19.0837 13.7148C19.3355 13.7069 19.5751 13.6043 19.7544 13.4274C19.9338 13.2506 20.0399 13.0125 20.0513 12.7609C20.0628 12.5092 19.9789 12.2625 19.8163 12.07C18.4805 10.7188 16.8105 9.74579 14.9763 9.25003C14.8456 9.19955 14.7058 9.1771 14.5659 9.18412C14.426 9.19114 14.2891 9.22748 14.1641 9.29078C14.0392 9.35408 13.9289 9.44293 13.8404 9.55157C13.752 9.66022 13.6874 9.78623 13.6508 9.92145C13.6141 10.0567 13.6063 10.1981 13.6279 10.3365C13.6494 10.4749 13.6997 10.6073 13.7757 10.725C13.8516 10.8427 13.9515 10.9431 14.0687 11.0198C14.186 11.0965 14.318 11.1477 14.4563 11.17C15.9464 11.583 17.304 12.3755 18.3963 13.47Z" fill="#F35D6C"/>
</svg>
