<svg width="30" height="28" viewBox="0 0 30 28" fill="none" xmlns="http://www.w3.org/2000/svg">
<path d="M15.0001 19.3334C14.7364 19.3334 14.4786 19.4116 14.2594 19.5581C14.0401 19.7046 13.8692 19.9128 13.7683 20.1565C13.6674 20.4001 13.641 20.6682 13.6924 20.9268C13.7439 21.1855 13.8708 21.423 14.0573 21.6095C14.2438 21.796 14.4814 21.923 14.74 21.9744C14.9986 22.0259 15.2667 21.9995 15.5104 21.8985C15.754 21.7976 15.9622 21.6267 16.1087 21.4075C16.2553 21.1882 16.3335 20.9304 16.3335 20.6667C16.3335 20.3131 16.193 19.9739 15.9429 19.7239C15.6929 19.4738 15.3537 19.3334 15.0001 19.3334ZM29.2268 21.2934L18.4935 2.6267C18.1465 2.00472 17.6398 1.48665 17.0257 1.12599C16.4116 0.765343 15.7123 0.575195 15.0001 0.575195C14.2879 0.575195 13.5887 0.765343 12.9745 1.12599C12.3604 1.48665 11.8537 2.00472 11.5068 2.6267L0.840119 21.2934C0.481181 21.8987 0.28831 22.5881 0.280979 23.2918C0.273648 23.9955 0.452117 24.6887 0.798367 25.3014C1.14462 25.9141 1.64639 26.4246 2.25303 26.7814C2.85967 27.1382 3.5497 27.3286 4.25345 27.3334H25.7468C26.4562 27.3404 27.1547 27.1586 27.7707 26.8066C28.3866 26.4546 28.8979 25.9452 29.2521 25.3305C29.6063 24.7158 29.7906 24.0179 29.7861 23.3085C29.7817 22.5991 29.5886 21.9036 29.2268 21.2934ZM26.9201 23.96C26.8033 24.168 26.6327 24.3407 26.4264 24.4604C26.22 24.58 25.9853 24.642 25.7468 24.64H4.25345C4.01493 24.642 3.78025 24.58 3.57388 24.4604C3.3675 24.3407 3.19699 24.168 3.08012 23.96C2.9631 23.7573 2.90149 23.5274 2.90149 23.2934C2.90149 23.0593 2.9631 22.8294 3.08012 22.6267L13.7468 3.96004C13.8587 3.74163 14.0287 3.55835 14.238 3.43036C14.4474 3.30237 14.6881 3.23465 14.9335 3.23465C15.1788 3.23465 15.4195 3.30237 15.6289 3.43036C15.8382 3.55835 16.0082 3.74163 16.1201 3.96004L26.8535 22.6267C26.9857 22.8265 27.0618 23.0582 27.0735 23.2976C27.0852 23.5369 27.0322 23.7749 26.9201 23.9867V23.96ZM15.0001 8.6667C14.6465 8.6667 14.3074 8.80718 14.0573 9.05723C13.8073 9.30728 13.6668 9.64641 13.6668 10V15.3334C13.6668 15.687 13.8073 16.0261 14.0573 16.2762C14.3074 16.5262 14.6465 16.6667 15.0001 16.6667C15.3537 16.6667 15.6929 16.5262 15.9429 16.2762C16.193 16.0261 16.3335 15.687 16.3335 15.3334V10C16.3335 9.64641 16.193 9.30728 15.9429 9.05723C15.6929 8.80718 15.3537 8.6667 15.0001 8.6667Z" fill="#F77F31"/>
</svg>
