<svg width="33" height="32" viewBox="0 0 33 32" fill="none" xmlns="http://www.w3.org/2000/svg">
<path d="M29.4468 27.0532L24.5001 22.1465C26.4202 19.7524 27.3501 16.7136 27.0985 13.6549C26.8469 10.5963 25.433 7.75025 23.1475 5.70206C20.8619 3.65388 17.8785 2.55922 14.8107 2.64317C11.7428 2.72711 8.82375 3.98329 6.65364 6.15339C4.48353 8.3235 3.22736 11.2426 3.14341 14.3104C3.05946 17.3783 4.15412 20.3617 6.20231 22.6472C8.25049 24.9328 11.0965 26.3467 14.1552 26.5983C17.2138 26.8499 20.2527 25.92 22.6468 23.9999L27.5534 28.9065C27.6774 29.0315 27.8249 29.1307 27.9873 29.1984C28.1498 29.2661 28.3241 29.3009 28.5001 29.3009C28.6761 29.3009 28.8504 29.2661 29.0129 29.1984C29.1754 29.1307 29.3228 29.0315 29.4468 28.9065C29.6871 28.6579 29.8214 28.3257 29.8214 27.9799C29.8214 27.6341 29.6871 27.3018 29.4468 27.0532ZM15.1668 23.9999C13.3208 23.9999 11.5163 23.4525 9.98146 22.4269C8.4466 21.4014 7.25033 19.9437 6.54391 18.2383C5.83749 16.5328 5.65266 14.6562 6.01279 12.8457C6.37292 11.0352 7.26183 9.37217 8.56712 8.06688C9.87241 6.76159 11.5355 5.87267 13.3459 5.51254C15.1564 5.15241 17.0331 5.33725 18.7385 6.04366C20.4439 6.75008 21.9016 7.94636 22.9272 9.48122C23.9527 11.0161 24.5001 12.8206 24.5001 14.6665C24.5001 17.1419 23.5168 19.5159 21.7664 21.2662C20.0161 23.0165 17.6421 23.9999 15.1668 23.9999Z" fill="#2C6DFA"/>
</svg>
