<svg width="32" height="32" viewBox="0 0 32 32" fill="none" xmlns="http://www.w3.org/2000/svg">
<g id="User Interface / Broken Chain">
<path id="Vector" d="M6.34669 14.12C6.70031 14.166 7.05771 14.0696 7.34027 13.8521C7.62282 13.6345 7.80738 13.3137 7.85336 12.96C7.89933 12.6064 7.80294 12.249 7.5854 11.9665C7.36785 11.6839 7.04698 11.4993 6.69336 11.4534L4.34669 10.8667C4.1756 10.8142 3.99571 10.7968 3.81773 10.8153C3.63975 10.8339 3.46733 10.888 3.31073 10.9746C3.15413 11.0612 3.01656 11.1784 2.90622 11.3193C2.79588 11.4602 2.71502 11.6218 2.66847 11.7946C2.62192 11.9674 2.61062 12.1478 2.63525 12.325C2.65988 12.5022 2.71994 12.6727 2.81184 12.8263C2.90374 12.9798 3.02561 13.1133 3.17019 13.2187C3.31476 13.3242 3.47908 13.3994 3.65336 13.44L6.00002 14.0667C6.11173 14.104 6.22895 14.122 6.34669 14.12ZM11.4934 6.6667C11.5715 6.95758 11.7458 7.21344 11.9879 7.3926C12.23 7.57176 12.5257 7.66367 12.8267 7.65336C12.9415 7.6718 13.0585 7.6718 13.1734 7.65336C13.5118 7.55974 13.7996 7.33641 13.9743 7.03185C14.1491 6.7273 14.1966 6.3661 14.1067 6.0267L13.48 3.68003C13.4394 3.50575 13.3642 3.34143 13.2587 3.19686C13.1533 3.05229 13.0198 2.93042 12.8662 2.83851C12.7127 2.74661 12.5422 2.68656 12.365 2.66192C12.1878 2.63729 12.0074 2.64859 11.8346 2.69514C11.6618 2.74169 11.5002 2.82255 11.3593 2.93289C11.2184 3.04323 11.1012 3.1808 11.0146 3.3374C10.928 3.494 10.8739 3.66643 10.8553 3.84441C10.8368 4.02239 10.8542 4.20228 10.9067 4.37336L11.4934 6.6667ZM17.9334 20C17.8088 19.8689 17.6589 19.7645 17.4927 19.6932C17.3265 19.6218 17.1475 19.585 16.9667 19.585C16.7858 19.585 16.6069 19.6218 16.4407 19.6932C16.2745 19.7645 16.1246 19.8689 16 20L11.3334 24.7467C10.7847 25.2731 10.0537 25.567 9.29336 25.567C8.53298 25.567 7.80204 25.2731 7.25336 24.7467C6.98326 24.48 6.7688 24.1624 6.62243 23.8122C6.47606 23.462 6.40068 23.0862 6.40068 22.7067C6.40068 22.3271 6.47606 21.9514 6.62243 21.6012C6.7688 21.251 6.98326 20.9334 7.25336 20.6667L12 16C12.1396 15.8805 12.253 15.7334 12.333 15.568C12.413 15.4026 12.458 15.2224 12.4651 15.0388C12.4722 14.8551 12.4412 14.672 12.3742 14.5009C12.3072 14.3298 12.2055 14.1744 12.0756 14.0445C11.9456 13.9146 11.7902 13.8129 11.6191 13.7458C11.448 13.6788 11.2649 13.6479 11.0813 13.655C10.8977 13.6621 10.7175 13.707 10.5521 13.7871C10.3866 13.8671 10.2396 13.9805 10.12 14.12L5.33336 18.7734C4.81507 19.2916 4.40395 19.9069 4.12345 20.5841C3.84296 21.2613 3.69859 21.9871 3.69859 22.72C3.69859 23.453 3.84296 24.1788 4.12345 24.8559C4.40395 25.5331 4.81507 26.1484 5.33336 26.6667C5.85164 27.185 6.46693 27.5961 7.1441 27.8766C7.82127 28.1571 8.54706 28.3015 9.28002 28.3015C10.013 28.3015 10.7388 28.1571 11.4159 27.8766C12.0931 27.5961 12.7084 27.185 13.2267 26.6667L17.9334 21.96C18.0687 21.8352 18.1767 21.6836 18.2506 21.515C18.3245 21.3463 18.3626 21.1642 18.3626 20.98C18.3626 20.7959 18.3245 20.6138 18.2506 20.4451C18.1767 20.2764 18.0687 20.1249 17.9334 20ZM6.90669 8.7867C7.15504 9.03302 7.49024 9.17189 7.84002 9.17336C8.0155 9.17438 8.18945 9.14074 8.3519 9.07439C8.51435 9.00804 8.6621 8.91027 8.78669 8.7867C9.03502 8.53688 9.17441 8.19894 9.17441 7.8467C9.17441 7.49445 9.03502 7.15651 8.78669 6.90669L7.06669 5.1867C6.81162 4.96826 6.48352 4.85412 6.14795 4.86708C5.81238 4.88004 5.49406 5.01915 5.2566 5.25661C5.01915 5.49407 4.88004 5.81239 4.86707 6.14796C4.85411 6.48353 4.96825 6.81163 5.18669 7.0667L6.90669 8.7867ZM28.3467 18.56L26 17.9334C25.8261 17.8733 25.6417 17.8498 25.4583 17.8644C25.2748 17.8791 25.0964 17.9316 24.9343 18.0185C24.7721 18.1055 24.6297 18.2251 24.5161 18.3697C24.4024 18.5144 24.3199 18.681 24.2737 18.8592C24.2276 19.0373 24.2188 19.223 24.2479 19.4047C24.2771 19.5864 24.3435 19.76 24.443 19.9148C24.5426 20.0695 24.673 20.202 24.8263 20.3039C24.9795 20.4058 25.1521 20.4748 25.3334 20.5067L27.68 21.1334H28.0267C28.3803 21.1793 28.7377 21.0829 29.0203 20.8654C29.3028 20.6479 29.4874 20.327 29.5334 19.9734C29.5793 19.6197 29.4829 19.2623 29.2654 18.9798C29.0479 18.6972 28.727 18.5127 28.3734 18.4667L28.3467 18.56ZM20.5067 25.3334C20.4604 25.1643 20.3812 25.0061 20.2737 24.8677C20.1662 24.7292 20.0325 24.6134 19.8802 24.5267C19.7279 24.44 19.56 24.3842 19.386 24.3625C19.2121 24.3407 19.0357 24.3535 18.8667 24.4C18.5283 24.4936 18.2404 24.717 18.0657 25.0215C17.891 25.3261 17.8434 25.6873 17.9334 26.0267L18.56 28.3734C18.6382 28.6642 18.8125 28.9201 19.0546 29.0993C19.2967 29.2784 19.5923 29.3703 19.8934 29.36C20.0085 29.3731 20.1248 29.3731 20.24 29.36C20.4103 29.3152 20.5699 29.237 20.7098 29.1302C20.8497 29.0233 20.967 28.8897 21.0551 28.7373C21.1431 28.5848 21.2 28.4164 21.2226 28.2418C21.2452 28.0672 21.233 27.8899 21.1867 27.72L20.5067 25.3334ZM25.0934 23.24C24.8383 23.0216 24.5102 22.9075 24.1746 22.9204C23.8391 22.9334 23.5207 23.0725 23.2833 23.3099C23.0458 23.5474 22.9067 23.8657 22.8937 24.2013C22.8808 24.5369 22.9949 24.865 23.2134 25.12L24.9334 26.84C25.1832 27.0884 25.5211 27.2278 25.8734 27.2278C26.2256 27.2278 26.5635 27.0884 26.8134 26.84C27.0617 26.5902 27.2011 26.2523 27.2011 25.9C27.2011 25.5478 27.0617 25.2098 26.8134 24.96L25.0934 23.24ZM28.2667 9.33336C28.2874 8.22461 27.9753 7.1351 27.3707 6.2055C26.766 5.27589 25.8966 4.54886 24.8747 4.11827C23.8528 3.68768 22.7252 3.5733 21.6376 3.78989C20.5501 4.00649 19.5524 4.54411 18.7734 5.33336L14.0667 10.08C13.9406 10.207 13.8408 10.3575 13.7729 10.523C13.705 10.6886 13.6704 10.8658 13.671 11.0447C13.6716 11.2237 13.7075 11.4007 13.7765 11.5657C13.8455 11.7308 13.9464 11.8806 14.0734 12.0067C14.2003 12.1328 14.3508 12.2326 14.5164 12.3005C14.6819 12.3684 14.8592 12.403 15.0381 12.4024C15.217 12.4018 15.394 12.3659 15.5591 12.2969C15.7241 12.2278 15.874 12.127 16 12L20.6667 7.25336C21.2154 6.72695 21.9463 6.43302 22.7067 6.43302C23.4671 6.43302 24.198 6.72695 24.7467 7.25336C25.0168 7.52002 25.2312 7.83766 25.3776 8.18785C25.524 8.53804 25.5994 8.91381 25.5994 9.29336C25.5994 9.67291 25.524 10.0487 25.3776 10.3989C25.2312 10.7491 25.0168 11.0667 24.7467 11.3334L20 16C19.7517 16.2498 19.6123 16.5878 19.6123 16.94C19.6123 17.2923 19.7517 17.6302 20 17.88C20.2498 18.1284 20.5878 18.2678 20.94 18.2678C21.2923 18.2678 21.6302 18.1284 21.88 17.88L26.6667 13.2267C27.6872 12.1872 28.2614 10.7901 28.2667 9.33336Z" fill="#F35D6C"/>
</g>
</svg>
