<svg xmlns="http://www.w3.org/2000/svg" fill="none" viewBox="0 0 14 14" id="Cards--Streamline-Flex-Gradient.svg" height="48" width="48" stroke-width="1"><desc>Cards Streamline Icon: https://streamlinehq.com</desc><g id="cards"><g id="Union"><path fill="url(#paint0_linear_7718_11518)" d="M6.9106.054126c.48081.0238082.8849.368582.98915.838554.65109 2.93542.82909 4.91379.70027 7.91736-.02052.47852-.3553.88693-.82147.99687-2.23566.52729-3.78508.66609-6.07587.53949-.48456-.0268-.888752-.37891-.987248-.85411-.603681-2.91245-.7772079-4.87378-.6970992-7.8801C.031421 1.12099.374981.699518.854401.591815 3.08028.0917628 4.62606-.0589988 6.9106.054126Z"></path><path fill="url(#paint1_linear_7718_11518)" d="M10.1064 3.3033c-.17453-.05718-.34618.09043-.32184.27244.22614 1.69116.27394 3.27876.18753 5.29291-.04663 1.08733-.80785 2.02235-1.87844 2.27485-1.40743.332-2.57299.5197-3.79759.5889-.05088.0029-.0687.0648-.02387.089 2.07489 1.1219 3.55277 1.6598 5.86471 2.1401.4268.0886.8606-.118 1.0629-.5041 1.4259-2.721 2.1098-4.60257 2.7766-7.60183.0951-.42765-.1052-.86758-.4918-1.07374-1.2384-.66046-2.2648-1.11371-3.3782-1.47853Z"></path></g></g><defs><linearGradient id="paint0_linear_7718_11518" x1=".538" x2="16.474" y1="1.147" y2="10.152" gradientUnits="userSpaceOnUse"><stop stop-color="#00f6e7"></stop><stop offset="1" stop-color="#6d1fec"></stop></linearGradient><linearGradient id="paint1_linear_7718_11518" x1=".538" x2="16.474" y1="1.147" y2="10.152" gradientUnits="userSpaceOnUse"><stop stop-color="#00f6e7"></stop><stop offset="1" stop-color="#6d1fec"></stop></linearGradient></defs></svg>