<svg width="28" height="28" viewBox="0 0 28 28" fill="none" xmlns="http://www.w3.org/2000/svg">
<path d="M13.0537 18.3867C12.9963 18.45 12.9429 18.5168 12.8937 18.5867C12.8432 18.661 12.8028 18.7417 12.7737 18.8267C12.7352 18.9022 12.7083 18.9831 12.6937 19.0667C12.6871 19.1554 12.6871 19.2446 12.6937 19.3333C12.6892 19.5082 12.7257 19.6818 12.8003 19.84C12.8602 20.0055 12.9558 20.1557 13.0802 20.2802C13.2046 20.4046 13.3549 20.5001 13.5203 20.56C13.6799 20.6305 13.8525 20.667 14.027 20.667C14.2015 20.667 14.3741 20.6305 14.5337 20.56C14.6991 20.5001 14.8494 20.4046 14.9738 20.2802C15.0982 20.1557 15.1938 20.0055 15.2537 19.84C15.3129 19.6779 15.34 19.5058 15.3337 19.3333C15.3347 19.1579 15.301 18.9839 15.2347 18.8215C15.1683 18.659 15.0706 18.5113 14.947 18.3867C14.823 18.2617 14.6756 18.1625 14.5131 18.0948C14.3506 18.0271 14.1763 17.9923 14.0003 17.9923C13.8243 17.9923 13.65 18.0271 13.4876 18.0948C13.3251 18.1625 13.1776 18.2617 13.0537 18.3867ZM14.0003 0.666664C11.3632 0.666664 8.78538 1.44865 6.59273 2.91374C4.40007 4.37882 2.69111 6.4612 1.68194 8.89755C0.672769 11.3339 0.408725 14.0148 0.923194 16.6012C1.43766 19.1876 2.70754 21.5634 4.57224 23.4281C6.43694 25.2928 8.81271 26.5627 11.3991 27.0771C13.9855 27.5916 16.6664 27.3276 19.1028 26.3184C21.5391 25.3092 23.6215 23.6003 25.0866 21.4076C26.5517 19.2149 27.3337 16.6371 27.3337 14C27.3337 12.249 26.9888 10.5152 26.3187 8.89755C25.6487 7.27988 24.6665 5.81002 23.4284 4.57191C22.1903 3.33379 20.7205 2.35167 19.1028 1.6816C17.4851 1.01154 15.7513 0.666664 14.0003 0.666664ZM14.0003 24.6667C11.8907 24.6667 9.82837 24.0411 8.07425 22.869C6.32012 21.6969 4.95295 20.031 4.14562 18.082C3.33828 16.1329 3.12705 13.9882 3.53862 11.919C3.9502 9.8499 4.9661 7.94929 6.45786 6.45753C7.94962 4.96577 9.85024 3.94986 11.9194 3.53829C13.9885 3.12671 16.1332 3.33795 18.0823 4.14528C20.0314 4.95262 21.6973 6.31979 22.8693 8.07392C24.0414 9.82804 24.667 11.8903 24.667 14C24.667 16.829 23.5432 19.5421 21.5428 21.5425C19.5424 23.5429 16.8293 24.6667 14.0003 24.6667ZM14.0003 7.33333C13.2978 7.33288 12.6074 7.51749 11.9989 7.86859C11.3903 8.21968 10.885 8.72488 10.5337 9.33333C10.4372 9.48509 10.3724 9.65479 10.3432 9.83223C10.314 10.0097 10.3211 10.1912 10.3638 10.3658C10.4066 10.5405 10.4843 10.7047 10.5922 10.8486C10.7001 10.9924 10.8359 11.113 10.9916 11.203C11.1473 11.293 11.3196 11.3506 11.4981 11.3722C11.6766 11.3939 11.8577 11.3793 12.0304 11.3292C12.2031 11.2791 12.3639 11.1945 12.5031 11.0807C12.6423 10.9668 12.757 10.826 12.8403 10.6667C12.9578 10.4632 13.127 10.2944 13.3307 10.1773C13.5344 10.0602 13.7654 9.99907 14.0003 10C14.354 10 14.6931 10.1405 14.9431 10.3905C15.1932 10.6406 15.3337 10.9797 15.3337 11.3333C15.3337 11.687 15.1932 12.0261 14.9431 12.2761C14.6931 12.5262 14.354 12.6667 14.0003 12.6667C13.6467 12.6667 13.3076 12.8071 13.0575 13.0572C12.8075 13.3072 12.667 13.6464 12.667 14V15.3333C12.667 15.687 12.8075 16.0261 13.0575 16.2761C13.3076 16.5262 13.6467 16.6667 14.0003 16.6667C14.354 16.6667 14.6931 16.5262 14.9431 16.2761C15.1932 16.0261 15.3337 15.687 15.3337 15.3333V15.0933C16.2155 14.7734 16.9568 14.1536 17.428 13.3425C17.8992 12.5313 18.0704 11.5804 17.9115 10.6559C17.7527 9.73132 17.2739 8.89202 16.559 8.28468C15.844 7.67735 14.9384 7.34061 14.0003 7.33333Z" fill="#2C6DFA"/>
</svg>
