<svg width="19" height="5" viewBox="0 0 19 5" fill="none" xmlns="http://www.w3.org/2000/svg">
<path d="M9.57031 0.5C9.17475 0.5 8.78807 0.617298 8.45917 0.837061C8.13027 1.05682 7.87393 1.36918 7.72255 1.73463C7.57118 2.10009 7.53157 2.50222 7.60874 2.89018C7.68591 3.27814 7.8764 3.63451 8.1561 3.91421C8.43581 4.19392 8.79217 4.3844 9.18013 4.46157C9.5681 4.53874 9.97023 4.49913 10.3357 4.34776C10.7011 4.19638 11.0135 3.94004 11.2333 3.61114C11.453 3.28224 11.5703 2.89556 11.5703 2.5C11.5703 1.96957 11.3596 1.46086 10.9845 1.08579C10.6095 0.710714 10.1007 0.5 9.57031 0.5ZM2.57031 0.5C2.17475 0.5 1.78807 0.617298 1.45917 0.837061C1.13027 1.05682 0.87393 1.36918 0.722554 1.73463C0.571179 2.10009 0.531572 2.50222 0.608743 2.89018C0.685913 3.27814 0.876395 3.63451 1.1561 3.91421C1.4358 4.19392 1.79217 4.3844 2.18013 4.46157C2.56809 4.53874 2.97023 4.49913 3.33568 4.34776C3.70113 4.19638 4.01349 3.94004 4.23325 3.61114C4.45302 3.28224 4.57031 2.89556 4.57031 2.5C4.57031 1.96957 4.3596 1.46086 3.98453 1.08579C3.60945 0.710714 3.10075 0.5 2.57031 0.5ZM16.5703 0.5C16.1748 0.5 15.7881 0.617298 15.4592 0.837061C15.1303 1.05682 14.8739 1.36918 14.7226 1.73463C14.5712 2.10009 14.5316 2.50222 14.6087 2.89018C14.6859 3.27814 14.8764 3.63451 15.1561 3.91421C15.4358 4.19392 15.7922 4.3844 16.1801 4.46157C16.5681 4.53874 16.9702 4.49913 17.3357 4.34776C17.7011 4.19638 18.0135 3.94004 18.2333 3.61114C18.453 3.28224 18.5703 2.89556 18.5703 2.5C18.5703 1.96957 18.3596 1.46086 17.9845 1.08579C17.6095 0.710714 17.1007 0.5 16.5703 0.5Z" fill="#9196A9"/>
</svg>
