<svg xmlns="http://www.w3.org/2000/svg" fill="none" viewBox="0 0 14 14" id="Card-Add--Streamline-Flex.svg" height="14" width="14"><desc>Card Add Streamline Icon: https://streamlinehq.com</desc><g id="card-add"><path id="Subtract" fill="#ff7972" fill-rule="evenodd" d="M0.625342 2.62791c-0.01171 -0.45152 0.277931 -0.85707 0.709788 -0.9894C3.67526 0.921437 5.28959 0.680806 7.7304 0.625263c0.46092 -0.010489 0.87012 0.294203 0.9947 0.738087 0.36604 1.30423 0.80044 3.2647 1.19914 5.70032 -0.55577 0.35529 -0.92423 0.97778 -0.92423 1.68633V9H8.75c-1.10457 0 -2 0.89543 -2 2 0 0.1118 0.00918 0.2215 0.02682 0.3283 -1.64291 0.234 -3.12808 0.3216 -3.85606 0.3303 -0.44935 0.0053 -0.84756 -0.2894 -0.97607 -0.72C1.03107 7.87711 0.708191 5.82231 0.625342 2.62791Z" clip-rule="evenodd" stroke-width="1"></path><path id="Union" fill="#0c098c" fill-rule="evenodd" d="M7.74462 1.2501c0.17384 -0.00395 0.33081 0.11138 0.37873 0.28213 0.52131 1.85746 0.86345 3.45786 1.06132 5.0153 0.04351 0.34242 0.35637 0.58474 0.69879 0.54124 0.34244 -0.04351 0.58474 -0.35637 0.54124 -0.69879 -0.2074 -1.6324 -0.56429 -3.29441 -1.09785 -5.19551C9.12562 0.477451 8.46418 -0.016595 7.71618 0.000426528 5.22216 0.0571811 3.55069 0.305926 1.15202 1.04094c-0.702262 0.21519 -1.1703967 0.87327 -1.151466312 1.60317C0.0848122 5.89288 0.416212 8.00236 1.34579 11.1173c0.20786 0.6966 0.85237 1.1749 1.58242 1.1662 1.28518 -0.0153 2.35876 -0.0914 3.42986 -0.2665 0.34066 -0.0557 0.57168 -0.3769 0.51599 -0.7176 -0.05568 -0.3407 -0.37698 -0.5717 -0.71763 -0.516 -0.99247 0.1622 -2.0007 0.2354 -3.24312 0.2502 -0.16865 0.002 -0.32056 -0.109 -0.36972 -0.2737 -0.89766 -3.00804 -1.21202 -5.00816 -1.29346 -8.14819 -0.00449 -0.17315 0.10666 -0.32615 0.26811 -0.37562 2.28159 -0.69914 3.83878 -0.93165 6.22638 -0.98599ZM11 14c0.4142 0 0.75 -0.3358 0.75 -0.75v-1.5h1.5c0.4142 0 0.75 -0.3358 0.75 -0.75s-0.3358 -0.75 -0.75 -0.75h-1.5v-1.5c0 -0.41421 -0.3358 -0.75 -0.75 -0.75s-0.75 0.33579 -0.75 0.75v1.5h-1.5c-0.41421 0 -0.75 0.3358 -0.75 0.75s0.33579 0.75 0.75 0.75h1.5v1.5c0 0.4142 0.3358 0.75 0.75 0.75Z" clip-rule="evenodd" stroke-width="1"></path></g></svg>