<svg width="18" height="18" viewBox="0 0 18 18" fill="none" xmlns="http://www.w3.org/2000/svg">
<path d="M14.91 11.6251H11.535C11.3361 11.6251 11.1453 11.7041 11.0047 11.8448C10.864 11.9854 10.785 12.1762 10.785 12.3751C10.785 12.574 10.864 12.7648 11.0047 12.9054C11.1453 13.0461 11.3361 13.1251 11.535 13.1251H13.335C12.7769 13.7147 12.1049 14.1848 11.3598 14.5071C10.6146 14.8294 9.81184 14.9971 9 15.0001C8.19639 14.9993 7.40096 14.8387 6.66 14.5276L5.5425 15.6451C6.6078 16.2084 7.79495 16.502 9 16.5001C10.9227 16.4946 12.7699 15.7509 14.16 14.4226V15.7501C14.16 15.949 14.239 16.1398 14.3797 16.2804C14.5203 16.4211 14.7111 16.5001 14.91 16.5001C15.1089 16.5001 15.2997 16.4211 15.4403 16.2804C15.581 16.1398 15.66 15.949 15.66 15.7501V12.3751C15.66 12.1762 15.581 11.9854 15.4403 11.8448C15.2997 11.7041 15.1089 11.6251 14.91 11.6251ZM13.7325 5.32511L14.805 4.25261L16.305 2.75261C16.3749 2.68268 16.4304 2.59966 16.4682 2.5083C16.5061 2.41693 16.5256 2.319 16.5256 2.22011C16.5256 2.12122 16.5061 2.02329 16.4682 1.93192C16.4304 1.84056 16.3749 1.75754 16.305 1.68761C16.2351 1.61768 16.1521 1.56221 16.0607 1.52436C15.9693 1.48652 15.8714 1.46704 15.7725 1.46704C15.6736 1.46704 15.5757 1.48652 15.4843 1.52436C15.3929 1.56221 15.3099 1.61768 15.24 1.68761L13.74 3.18761C12.4049 2.09005 10.7284 1.49319 9 1.50011C7.07729 1.50559 5.23012 2.2493 3.84 3.57761V2.25011C3.84 2.0512 3.76098 1.86043 3.62033 1.71978C3.47968 1.57913 3.28891 1.50011 3.09 1.50011C2.89109 1.50011 2.70032 1.57913 2.55967 1.71978C2.41902 1.86043 2.34 2.0512 2.34 2.25011V5.62511C2.34 5.82402 2.41902 6.01479 2.55967 6.15544C2.70032 6.29609 2.89109 6.37511 3.09 6.37511H6.465C6.66391 6.37511 6.85468 6.29609 6.99533 6.15544C7.13598 6.01479 7.215 5.82402 7.215 5.62511C7.215 5.4262 7.13598 5.23543 6.99533 5.09478C6.85468 4.95413 6.66391 4.87511 6.465 4.87511H4.665C5.68219 3.79298 7.06744 3.13057 8.54834 3.01815C10.0292 2.90573 11.4986 3.35143 12.6675 4.26761L4.2675 12.6676C3.44687 11.6212 3.0006 10.3299 3 9.00011C3 8.8012 2.92098 8.61043 2.78033 8.46978C2.63968 8.32913 2.44891 8.25011 2.25 8.25011C2.05109 8.25011 1.86032 8.32913 1.71967 8.46978C1.57902 8.61043 1.5 8.8012 1.5 9.00011C1.49731 10.7303 2.09954 12.407 3.2025 13.7401L1.7025 15.2401C1.6322 15.3098 1.57641 15.3928 1.53833 15.4842C1.50026 15.5756 1.48065 15.6736 1.48065 15.7726C1.48065 15.8716 1.50026 15.9696 1.53833 16.061C1.57641 16.1524 1.6322 16.2354 1.7025 16.3051C1.77222 16.3754 1.85517 16.4312 1.94657 16.4693C2.03796 16.5074 2.13599 16.527 2.235 16.527C2.33401 16.527 2.43204 16.5074 2.52343 16.4693C2.61483 16.4312 2.69778 16.3754 2.7675 16.3051L4.2675 14.8051L5.34 13.7326L13.7325 5.32511ZM14.5275 6.66011C14.8386 7.40107 14.9992 8.1965 15 9.00011C15 9.19902 15.079 9.38979 15.2197 9.53044C15.3603 9.67109 15.5511 9.75011 15.75 9.75011C15.9489 9.75011 16.1397 9.67109 16.2803 9.53044C16.421 9.38979 16.5 9.19902 16.5 9.00011C16.5019 7.79505 16.2083 6.60791 15.645 5.54261L14.5275 6.66011Z" fill="#CD2D2D"/>
</svg>
