<svg width="15" height="14" viewBox="0 0 15 14" fill="none" xmlns="http://www.w3.org/2000/svg">
<path d="M11.5658 6.52209C11.389 6.52209 11.2195 6.59233 11.0944 6.71735C10.9694 6.84238 10.8992 7.01195 10.8992 7.18876V11.9754C10.8992 12.1522 10.8289 12.3218 10.7039 12.4468C10.5789 12.5719 10.4093 12.6421 10.2325 12.6421H2.89917C2.72236 12.6421 2.55279 12.5719 2.42777 12.4468C2.30274 12.3218 2.2325 12.1522 2.2325 11.9754V4.64209C2.2325 4.46528 2.30274 4.29571 2.42777 4.17069C2.55279 4.04566 2.72236 3.97542 2.89917 3.97542H7.68584C7.86265 3.97542 8.03222 3.90519 8.15724 3.78016C8.28227 3.65514 8.3525 3.48557 8.3525 3.30876C8.3525 3.13195 8.28227 2.96238 8.15724 2.83735C8.03222 2.71233 7.86265 2.64209 7.68584 2.64209H2.89917C2.36874 2.64209 1.86003 2.8528 1.48496 3.22788C1.10988 3.60295 0.89917 4.11166 0.89917 4.64209V11.9754C0.89917 12.5059 1.10988 13.0146 1.48496 13.3896C1.86003 13.7647 2.36874 13.9754 2.89917 13.9754H10.2325C10.7629 13.9754 11.2716 13.7647 11.6467 13.3896C12.0218 13.0146 12.2325 12.5059 12.2325 11.9754V7.18876C12.2325 7.01195 12.1623 6.84238 12.0372 6.71735C11.9122 6.59233 11.7426 6.52209 11.5658 6.52209ZM14.1792 1.05542C14.1115 0.892524 13.9821 0.763073 13.8192 0.695423C13.739 0.661262 13.653 0.643143 13.5658 0.64209H9.56584C9.38903 0.64209 9.21946 0.712328 9.09443 0.837352C8.96941 0.962376 8.89917 1.13195 8.89917 1.30876C8.89917 1.48557 8.96941 1.65514 9.09443 1.78016C9.21946 1.90519 9.38903 1.97542 9.56584 1.97542H11.9592L5.0925 8.83542C5.03002 8.8974 4.98042 8.97113 4.94658 9.05237C4.91273 9.13361 4.8953 9.22075 4.8953 9.30876C4.8953 9.39676 4.91273 9.4839 4.94658 9.56514C4.98042 9.64638 5.03002 9.72011 5.0925 9.78209C5.15448 9.84458 5.22821 9.89417 5.30945 9.92802C5.39069 9.96186 5.47783 9.97929 5.56584 9.97929C5.65384 9.97929 5.74098 9.96186 5.82222 9.92802C5.90346 9.89417 5.97719 9.84458 6.03917 9.78209L12.8992 2.91542V5.30876C12.8992 5.48557 12.9694 5.65514 13.0944 5.78016C13.2195 5.90519 13.389 5.97542 13.5658 5.97542C13.7426 5.97542 13.9122 5.90519 14.0372 5.78016C14.1623 5.65514 14.2325 5.48557 14.2325 5.30876V1.30876C14.2315 1.22164 14.2133 1.13557 14.1792 1.05542Z" fill="#9196A9"/>
</svg>
