<svg width="32" height="32" viewBox="0 0 32 32" fill="none" xmlns="http://www.w3.org/2000/svg">
<path d="M16.0003 9.33366C15.6467 9.33366 15.3076 9.47413 15.0575 9.72418C14.8075 9.97423 14.667 10.3134 14.667 10.667V16.0003C14.667 16.3539 14.8075 16.6931 15.0575 16.9431C15.3076 17.1932 15.6467 17.3337 16.0003 17.3337C16.3539 17.3337 16.6931 17.1932 16.9431 16.9431C17.1932 16.6931 17.3337 16.3539 17.3337 16.0003V10.667C17.3337 10.3134 17.1932 9.97423 16.9431 9.72418C16.6931 9.47413 16.3539 9.33366 16.0003 9.33366ZM16.0003 20.0003C15.7366 20.0003 15.4788 20.0785 15.2596 20.225C15.0403 20.3715 14.8694 20.5798 14.7685 20.8234C14.6676 21.067 14.6412 21.3351 14.6926 21.5938C14.7441 21.8524 14.871 22.09 15.0575 22.2765C15.244 22.4629 15.4816 22.5899 15.7402 22.6414C15.9988 22.6928 16.2669 22.6664 16.5106 22.5655C16.7542 22.4646 16.9624 22.2937 17.109 22.0744C17.2555 21.8552 17.3337 21.5974 17.3337 21.3337C17.3337 20.98 17.1932 20.6409 16.9431 20.3909C16.6931 20.1408 16.3539 20.0003 16.0003 20.0003ZM28.947 10.0803L21.9203 3.05366C21.6648 2.81001 21.3267 2.6719 20.9737 2.66699H11.027C10.674 2.6719 10.3358 2.81001 10.0803 3.05366L3.05366 10.0803C2.81001 10.3358 2.6719 10.674 2.66699 11.027V20.9737C2.6719 21.3267 2.81001 21.6648 3.05366 21.9203L10.0803 28.947C10.3358 29.1906 10.674 29.3287 11.027 29.3337H20.9737C21.3267 29.3287 21.6648 29.1906 21.9203 28.947L28.947 21.9203C29.1906 21.6648 29.3287 21.3267 29.3337 20.9737V11.027C29.3287 10.674 29.1906 10.3358 28.947 10.0803ZM26.667 20.4137L20.4137 26.667H11.587L5.33366 20.4137V11.587L11.587 5.33366H20.4137L26.667 11.587V20.4137Z" fill="#F35D6C"/>
</svg>
